# xmcd
#
# Track frame offsets:
#	150
#	43692
#	52354
#	65581
#	85392
#	97840
#	117082
#	142234
#	157862
#	168526
#	184553
#	197072
#
# Disc length: 3373 seconds
#
# Revision: 1
# Processed by: cddbd v1.5PL3 Copyright (c) Steve Scherf et al.
# Submitted via: audiograbber 1.80.04
#
DISCID=a80d2b0c
DTITLE=Lucky Ron - The Saturday Show - Disk 2
DYEAR=1900
DGENRE=Country
TTITLE0=Rock Island Line
TTITLE1=Sudbury Saturday Night
TTITLE2=Tilsonburg
TTITLE3=Sunday Morning Coming Down
TTITLE4=Ring of Fire
TTITLE5=Tennessee Flat Top Box
TTITLE6=There Stands the Glass
TTITLE7=16 Tons
TTITLE8=Coal Boat
TTITLE9=Big Joe
TTITLE10=I Saw The Light
TTITLE11=Mule Train
EXTD=The Weekly Show\n\nOttawa, Ontario
EXTT0=
EXTT1=
EXTT2=
EXTT3=
EXTT4=
EXTT5=
EXTT6=
EXTT7=
EXTT8=
EXTT9=
EXTT10=
EXTT11=
PLAYORDER=
